# AST/ASF file generated using VICON BodyLanguage
# -----------------------------------------------
:version 1.10
:name VICON
:units
  mass 1.0
  length 0.45
  angle deg
:documentation
   .ast/.asf automatically generated from VICON data using
   VICON BodyBuilder and BodyLanguage model FoxedUp or BRILLIANT.MOD
:root
   order TX TY TZ RX RY RZ
   axis XYZ
   position 0 0 0  
   orientation 0 0 0 
:bonedata
  begin
     id 1 
     name lhipjoint
     direction 0.645893 -0.654526 0.392961 
     length 2.38111 
     axis 0 0 0  XYZ
  end
  begin
     id 2 
     name lfemur
     direction 0.34202 -0.939693 0  
     length 6.6822  
     axis 0 0 20  XYZ
    dof rx ry rz
    limits (-160.0 20.0)
           (-70.0 70.0)
           (-60.0 70.0)
  end
  begin
     id 3 
     name ltibia
     direction 0.34202 -0.939693 0   
     length 6.93904   
     axis 0 0 20   XYZ
    dof rx
    limits (-10.0 170.0)
  end
  begin
     id 4 
     name lfoot
     direction 0.0694967 -0.190941 0.979138   
     length 2.13616   
     axis -90 7.62852e-016 20   XYZ
    dof rx rz
    limits (-45.0 90.0)
           (-70.0 20.0)
  end
  begin
     id 5 
     name ltoes
     direction 1.535e-011 -4.2202e-011 1   
     length 1.07536   
     axis -90 7.62852e-016 20   XYZ
    dof rx
    limits (-90.0 20.0)
  end
  begin
     id 6 
     name rhipjoint
     direction -0.700219 -0.612087 0.367481   
     length 2.54621  
     axis 0 0 0  XYZ 
  end
  begin
     id 7 
     name rfemur
     direction -0.34202 -0.939693 0   
     length 6.55353   
     axis 0 0 -20   XYZ
    dof rx ry rz
    limits (-160.0 20.0)
           (-70.0 70.0)
           (-70.0 60.0)
  end
  begin
     id 8 
     name rtibia
     direction -0.34202 -0.939693 0   
     length 6.8736   
     axis 0 0 -20   XYZ
    dof rx
    limits (-10.0 170.0)
 end
 begin
     id 9 
     name rfoot
     direction -0.0679995 -0.186827 0.980037   
     length 2.1218  
     axis -90 -7.62852e-016 -20   XYZ
    dof rx rz
    limits (-45.0 90.0)
           (-20.0 70.0)
  end
  begin
     id 10 
     name rtoes
     direction -1.53589e-011 -4.21772e-011 1   
     length 1.06864   
     axis -90 -7.62852e-016 -20   XYZ
    dof rx
    limits (-90.0 20.0)
  end
  begin
     id 11 
     name lowerback
     direction -0.0416607 0.996347 -0.0745409   
     length 2.12205   
     axis 0 0 0   XYZ
    dof rx ry rz
    limits (-20.0 45.0)
           (-30.0 30.0)
           (-30.0 30.0)
  end
  begin
     id 12 
     name upperback
     direction -0.000153993 0.999276 -0.0380568   
     length 2.12759   
     axis 0 0 0   XYZ
    dof rx ry rz
    limits (-20.0 45.0)
           (-30.0 30.0)
           (-30.0 30.0)
  end
  begin
     id 13 
     name thorax
     direction 0.0187671 0.999821 -0.00241421   
     length 2.13704   
     axis 0 0 0   XYZ
    dof rx ry rz
    limits (-20.0 45.0)
           (-30.0 30.0)
           (-30.0 30.0)
  end
  begin
     id 14 
     name lowerneck
     direction 0.0268157 0.964865 0.261374   
     length 1.65253   
     axis 0 0 0   XYZ
    dof rx ry rz
    limits (-20.0 45.0)
           (-30.0 30.0)
           (-30.0 30.0)
  end
  begin
     id 15 
     name upperneck
     direction 0.00263774 0.939908 -0.341418   
     length 1.72375   
     axis 0 0 0   XYZ
    dof rx ry rz
    limits (-20.0 45.0)
           (-30.0 30.0)
           (-30.0 30.0)
  end
  begin
     id 16
     name head
     direction -0.00526001 0.989001 -0.147818  
     length 1.74878  
     axis 0 0 0   XYZ
    dof rx ry rz
    limits (-20.0 45.0)
           (-30.0 30.0)
           (-30.0 30.0)
  end
  begin
     id 17 
     name lclavicle
     direction 0.881214 0.461162 -0.103884  
     length 3.25108  
     axis 0 0 0   XYZ
    dof ry rz
    limits (-20.0 10.0)
           (0.0 20.0)
  end
  begin
     id 18 
     name lhumerus
     direction 1 -4.4899e-011 3.38092e-027   
     length 4.87408   
     axis 180 -30 -90   XYZ
    dof rx ry rz
    limits (-60.0 90.0)
           (-90.0 90.0)
           (-90.0 90.0)
  end
  begin
     id 19
     name lradius
     direction 1 -4.48931e-011 9.96288e-027   
     length 2.76729   
     axis 180 -30 -90   XYZ
    dof rx
    limits (-10.0 170.0)
  end
  begin
     id 20
     name lwrist
     direction 1 -4.4896e-011 1.50617e-026   
     length 1.38364   
     axis -9.31234e-015 90 90   XYZ
    dof ry
    limits (-180.0 0.0)
 end
  begin
     id 21 
     name lhand
     direction 1 -4.49038e-011 3.01286e-026   
     length 0.98922   
     axis -1.92217e-014 90 90   XYZ
    dof rx rz
    limits (-90.0 90.0)
           (-45.0 45.0)
  end
  begin
     id 22 
     name lfingers
     direction 1 -4.49051e-011 6.02588e-026   
     length 0.797535   
     axis -3.84436e-014 90 90   XYZ
    dof rx
    limits (0.0 90.0)
  end
  begin
     id 23
     name lthumb
     direction 0.707107 -6.34901e-011 0.707107   
     length 1.14511   
     axis -90 45 2.19363e-014   XYZ
    dof rx rz
    limits (-45.0 45.0)
           (-45.0 45.0)
  end
  begin
     id 24 
     name rclavicle
     direction -0.893894 0.441652 -0.0767889   
     length 3.29361  
     axis 0 0 0   XYZ 
    dof ry rz
    limits (-10.0 20.0)
           (-20.0 0.0)
  end
  begin
     id 25 
     name rhumerus
     direction -1 -4.48945e-011 8.0491e-028  
     length 4.71404   
     axis 180 30 90   XYZ
    dof rx ry rz
    limits (-90.0 60.0)
           (-90.0 90.0)
           (-90.0 90.0)
  end
  begin
     id 26 
     name rradius
     direction -1 -4.48986e-011 9.27795e-027   
     length 2.83468   
     axis 180 30 90   XYZ
    dof rx
    limits (-10.0 170.0)
  end
  begin
     id 27 
     name rwrist
     direction -1 -4.49029e-011 1.5064e-026   
     length 1.41734   
     axis -9.31234e-015 -90 -90   XYZ
    dof ry
    limits (-180.0 0.0)
  end
  begin
     id 28
     name rhand
     direction -1 -4.48857e-011 3.01165e-026   
     length 0.868195   
     axis -1.92217e-014 -90 -90   XYZ
    dof rx rz
    limits (-90.0 90.0)
           (-45.0 45.0)
  end
  begin
     id 29
     name rfingers
     direction -1 -4.49048e-011 6.02585e-026   
     length 0.699961   
     axis -3.84436e-014 -90 -90   XYZ
    dof rx
    limits (0.0 90.0)
  end
  begin
     id 30
     name rthumb
     direction -0.707107 -6.34854e-011 0.707107   
     length 1.00501   
     axis -90 -45 -2.19363e-014   XYZ
    dof rx rz
    limits (-45.0 45.0)
           (-45.0 45.0)
  end
:hierarchy
  begin
    root lhipjoint rhipjoint lowerback
    lhipjoint lfemur
    lfemur ltibia
    ltibia lfoot
    lfoot ltoes
    rhipjoint rfemur
    rfemur rtibia
    rtibia rfoot
    rfoot rtoes
    lowerback upperback
    upperback thorax
    thorax lowerneck lclavicle rclavicle
    lowerneck upperneck
    upperneck head
    lclavicle lhumerus
    lhumerus lradius
    lradius lwrist
    lwrist lhand lthumb
    lhand lfingers
    rclavicle rhumerus
    rhumerus rradius
    rradius rwrist
    rwrist rhand rthumb
    rhand rfingers
  end

#!OML:ASF H:\ManfredObstacles\Project 1\Capture day 2\Session 1\male.ASF
:FULLY-SPECIFIED
:DEGREES
53
root 15.0875 15.9841 5.79755 -169.561 -2.52429 -181.315
lowerback -3.79803 -5.60664 -4.98394
upperback 0.630487 -7.282 1.36536
thorax 3.57316 -3.73916 3.63729
lowerneck -29.3371 4.70205 8.50741
upperneck 41.3251 10.4566 -7.14557
head 24.5184 5.24407 -2.12855
rclavicle 6.75122e-014 -4.27387e-015
rhumerus -70.7835 -2.25953 -76.3749
rradius 87.9456
rwrist 2.16109
rhand -14.9653 -5.49426
rfingers 7.12502
rthumb 11.1982 -35.1754
lclavicle 6.75122e-014 -4.27387e-015
lhumerus -52.1907 -26.4075 99.5555
lradius 99.2549
lwrist -22.1383
lhand -16.2751 5.18313
lfingers 7.12502
lthumb 9.93476 34.9287
rfemur -40.6644 9.18824 8.28191
rtibia 31.032
rfoot 14.9849 -6.60457
rtoes -22.7206
lfemur 4.99199 -1.80061 -28.2459
ltibia 48.6184
lfoot 30.9931 7.06608
ltoes 5.15718
54
root 15.0793 15.8449 5.44904 -170.006 -2.67374 -181.041
lowerback -3.43959 -5.30192 -4.72033
upperback 0.748308 -6.9027 1.33584
thorax 3.41871 -3.54474 3.52731
lowerneck -29.2986 4.63849 8.49361
upperneck 41.3014 10.4097 -7.17443
head 24.4735 5.23379 -2.15231
rclavicle -5.3647e-014 -1.16289e-014
rhumerus -69.7464 -1.50962 -76.7891
rradius 87.5064
rwrist 2.34186
rhand -14.9281 -5.22414
rfingers 7.12502
rthumb 11.2341 -34.9033
lclavicle -5.3647e-014 -1.16289e-014
lhumerus -52.4345 -25.3769 99.5383
lradius 98.6156
lwrist -22.2215
lhand -16.2575 5.45741
lfingers 7.12502
lthumb 9.95173 35.2022
rfemur -39.7249 9.24741 8.74763
rtibia 32.886
rfoot 12.0453 -5.77558
rtoes -24.2305
lfemur 3.87892 -1.33129 -27.757
ltibia 52.5967
lfoot 30.165 7.77452
ltoes 4.50534
55
root 15.0705 15.7015 5.10518 -170.48 -2.77445 -180.718
lowerback -3.01755 -4.96651 -4.4215
upperback 0.870466 -6.48558 1.30765
thorax 3.2288 -3.33059 3.40328
lowerneck -29.2551 4.58583 8.49039
upperneck 41.2464 10.3619 -7.20777
head 24.3982 5.2216 -2.18072
rclavicle 2.55687e-014 2.98177e-016
rhumerus -68.6142 -0.702563 -77.2568
rradius 86.9841
rwrist 2.50588
rhand -14.9054 -4.83205
rfingers 7.12502
rthumb 11.2559 -34.5101
lclavicle 2.55687e-014 2.98177e-016
lhumerus -52.6711 -24.2797 99.4673
lradius 97.9255
lwrist -22.2552
lhand -16.2449 5.73297
lfingers 7.12502
lthumb 9.96388 35.4771
rfemur -38.9017 9.26482 9.36341
rtibia 35.1257
rfoot 8.4725 -5.65744
rtoes -26.4509
lfemur 2.71662 -0.886486 -27.2453
ltibia 56.5835
lfoot 29.3124 8.34814
ltoes 3.80855
56
root 15.0616 15.5569 4.76741 -170.982 -2.82693 -180.331
lowerback -2.51258 -4.59795 -4.09184
upperback 1.00338 -6.02755 1.29206
thorax 3.00196 -3.09575 3.27863
lowerneck -29.1644 4.59116 8.62497
upperneck 41.071 10.3399 -7.35303
head 24.2317 5.22027 -2.29123
rclavicle -9.97402e-014 2.14687e-014
rhumerus -67.3531 0.141332 -77.7857
rradius 86.37
rwrist 2.62247
rhand -14.9409 -4.34641
rfingers 7.12502
rthumb 11.2217 -34.0263
lclavicle -9.97402e-014 2.14687e-014
lhumerus -52.8684 -23.1362 99.3413
lradius 97.15
lwrist -22.2778
lhand -16.2583 6.04234
lfingers 7.12502
lthumb 9.95093 35.7871
rfemur -38.186 9.25885 10.1423
rtibia 37.6341
rfoot 4.67915 -6.26693
rtoes -28.4266
lfemur 1.47813 -0.468995 -26.6913
ltibia 60.5805
lfoot 28.4339 8.74823
ltoes 3.12707
57
root 15.0516 15.4135 4.43637 -171.534 -2.83775 -179.867
lowerback -1.91691 -4.19094 -3.71618
upperback 1.17767 -5.52167 1.2912
thorax 2.76467 -2.83792 3.14407
lowerneck -29.0622 4.57619 8.72914
upperneck 40.8579 10.2851 -7.50106
head 24.0181 5.19796 -2.40654
rclavicle 1.6201e-014 -7.35503e-015
rhumerus -65.9154 1.00158 -78.3854
rradius 85.7015
rwrist 2.61556
rhand -15.0179 -3.89495
rfingers 7.12502
rthumb 11.1474 -33.5788
lclavicle 1.6201e-014 -7.35503e-015
lhumerus -52.9909 -21.977 99.159
lradius 96.2712
lwrist -22.3065
lhand -16.2984 6.413
lfingers 7.12502
lthumb 9.9123 36.1596
rfemur -37.4964 9.23116 11.0894
rtibia 40.242
rfoot 1.09428 -7.34978
rtoes -30.2614
lfemur 0.176102 -0.0687757 -26.0802
ltibia 64.5824
lfoot 27.5254 8.96418
ltoes 2.50132
58
root 15.0405 15.2732 4.11254 -172.155 -2.82367 -179.302
lowerback -1.19796 -3.75159 -3.27635
upperback 1.39541 -4.97763 1.32456
thorax 2.50327 -2.56225 3.0083
lowerneck -28.9476 4.61876 8.93695
upperneck 40.4722 10.24 -7.76213
head 23.6797 5.16539 -2.59984
rclavicle -1.63252e-014 1.0138e-014
rhumerus -64.2608 1.88824 -79.0286
rradius 84.9532
rwrist 2.60966
rhand -15.1447 -3.50047
rfingers 7.12502
rthumb 11.0252 -33.1909
lclavicle -1.63252e-014 1.0138e-014
lhumerus -53.0162 -20.8226 98.9338
lradius 95.2569
lwrist -22.3045
lhand -16.3679 6.9099
lfingers 7.12502
lthumb 9.84526 36.6597
rfemur -36.7221 9.23636 12.1982
rtibia 42.7531
rfoot -2.13766 -8.73846
rtoes -30.2822
lfemur -1.18208 0.334309 -25.3586
ltibia 68.5785
lfoot 26.5492 9.0096
ltoes 1.96955
59
root 15.0271 15.1364 3.79604 -172.842 -2.80457 -178.627
lowerback -0.37579 -3.29465 -2.75179
upperback 1.66491 -4.41409 1.4035
thorax 2.23978 -2.27911 2.86562
lowerneck -28.8496 4.67197 9.11285
upperneck 39.9855 10.1857 -8.041
head 23.2659 5.10857 -2.79511
rclavicle 3.61043e-014 -1.33186e-014
rhumerus -62.3553 2.82439 -79.6982
rradius 84.1152
rwrist 2.63583
rhand -15.2545 -3.27811
rfingers 7.12502
rthumb 10.9193 -32.9742
lclavicle 3.61043e-014 -1.33186e-014
lhumerus -52.9413 -19.672 98.6817
lradius 94.1087
lwrist -22.2245
lhand -16.4633 7.59367
lfingers 7.12502
lthumb 9.75317 37.3478
rfemur -35.7441 9.27232 13.4467
rtibia 45.0012
rfoot -4.92132 -10.2531
rtoes -30.0725
lfemur -2.60364 0.750307 -24.5024
ltibia 72.5538
lfoot 25.4615 8.97226
ltoes 1.50525
60
root 15.0104 15.0067 3.48618 -173.573 -2.82661 -177.859
lowerback 0.518262 -2.84352 -2.13136
upperback 1.9703 -3.85951 1.52316
thorax 1.978 -2.00281 2.70051
lowerneck -28.7616 4.73255 9.28653
upperneck 39.4373 10.1291 -8.3443
head 22.8216 5.03979 -2.99884
rclavicle -2.44754e-014 -2.38542e-015
rhumerus -60.2425 3.81823 -80.3698
rradius 83.2337
rwrist 2.82919
rhand -15.3355 -3.30047
rfingers 7.12502
rthumb 10.8411 -33.0007
lclavicle -2.44754e-014 -2.38542e-015
lhumerus -52.7978 -18.5536 98.4059
lradius 92.8525
lwrist -22.0095
lhand -16.557 8.49615
lfingers 7.12502
lthumb 9.66274 38.2545
rfemur -34.5143 9.3569 14.7658
rtibia 46.8788
rfoot -7.27774 -11.8657
rtoes -30.0661
lfemur -4.11511 1.1668 -23.5055
ltibia 76.4739
lfoot 24.2389 8.94175
ltoes 1.16568
61
root 14.9901 14.8866 3.18338 -174.268 -2.93145 -177.04
lowerback 1.41256 -2.42197 -1.44232
upperback 2.27231 -3.3401 1.67933
thorax 1.72241 -1.74607 2.5206
lowerneck -28.5409 4.76706 9.35871
upperneck 39.1424 10.1129 -8.66107
head 21.9417 4.93619 -3.11764
rclavicle -2.86995e-014 1.23246e-014
rhumerus -57.9818 4.8787 -81.0097
rradius 82.3181
rwrist 3.25084
rhand -15.3977 -3.49451
rfingers 7.12502
rthumb 10.7811 -33.1978
lclavicle -2.86995e-014 1.23246e-014
lhumerus -52.6323 -17.4895 98.1239
lradius 91.5495
lwrist -21.6842
lhand -16.6036 9.66006
lfingers 7.12502
lthumb 9.61779 39.4205
rfemur -33.1053 9.47039 16.0705
rtibia 48.3748
rfoot -9.26369 -13.455
rtoes -30.316
lfemur -5.81706 1.55874 -22.4053
ltibia 80.306
lfoot 22.9027 9.0126
ltoes 0.90523
